<svg width="225" height="105" viewBox="0 0 225 105" fill="none" xmlns="http://www.w3.org/2000/svg">
<path d="M-2.65987e-05 74.2438L-2.67029e-05 75.4346L1.2985 75.4346C1.2985 74.4984 1.76696 73.7429 2.35047 73.7429C2.93399 73.7429 3.40244 74.4984 3.40244 75.4346L4.51194 75.4346C4.51194 74.4984 4.9804 73.7429 5.56392 73.7429C6.14743 73.7429 6.61588 74.4984 6.61588 75.4346L7.72539 75.4346C7.72539 74.4984 8.19384 73.7429 8.77736 73.7429C9.36087 73.7429 9.82932 74.4984 9.82932 75.4346L10.9388 75.4346C10.9388 74.4984 11.4073 73.7429 11.9908 73.7429C12.5743 73.7429 13.0428 74.4984 13.0428 75.4346L14.1523 75.4346C14.1523 74.4984 14.6207 73.7429 15.2042 73.7429C15.7877 73.7429 16.2562 74.4984 16.2562 75.4346L17.3657 75.4346C17.3657 74.4984 17.8342 73.7429 18.4177 73.7429C19.0012 73.7429 19.4696 74.4984 19.4696 75.4346L20.5791 75.4346C20.5791 74.4984 21.0476 73.7429 21.6311 73.7429C22.2146 73.7429 22.6831 74.4984 22.6831 75.4346L23.7926 75.4346C23.7926 74.4984 24.261 73.7429 24.8446 73.7429C25.4281 73.7429 25.8965 74.4984 25.8965 75.4346L27.006 75.4346C27.006 74.4984 27.4745 73.7429 28.058 73.7429C28.6415 73.7429 29.11 74.4984 29.11 75.4346L30.2195 75.4346C30.2195 74.4984 30.6879 73.7429 31.2714 73.7429C31.8549 73.7429 32.3234 74.4984 32.3234 75.4346L33.4329 75.4346C33.4329 74.4984 33.9014 73.7429 34.4849 73.7429C35.0684 73.7429 35.5368 74.4984 35.5368 75.4346L36.6463 75.4346C36.6463 74.4984 37.1148 73.7429 37.6983 73.7429C38.2818 73.7429 38.7503 74.4984 38.7503 75.4346L39.8598 75.4346C39.8598 74.4984 40.3282 73.7429 40.9118 73.7429C41.4953 73.7429 41.9637 74.4984 41.9637 75.4346L43.0732 75.4346C43.0732 74.4984 43.5417 73.7429 44.1252 73.7429C44.7087 73.7429 45.1772 74.4984 45.1772 75.4346L46.2867 75.4346C46.2867 74.4984 46.7551 73.7429 47.3386 73.7429C47.9221 73.7429 48.3906 74.4984 48.3906 75.4346L49.5001 75.4346C49.5001 74.4984 49.9686 73.7429 50.5521 73.7429C51.1356 73.7429 51.604 74.4984 51.604 75.4346L52.7135 75.4346C52.7135 74.4984 53.182 73.7429 53.7655 73.7429C54.349 73.7429 54.8175 74.4984 54.8175 75.4346L55.927 75.4346C55.927 74.4984 56.3954 73.7429 56.9789 73.7429C57.5625 73.7429 58.0309 74.4984 58.0309 75.4346L59.4856 75.4346L59.4856 74.2438C58.5487 74.2438 57.7926 73.7758 57.7926 73.1927C57.7926 72.6097 58.5487 72.1416 59.4856 72.1416L59.4856 71.033C58.5487 71.033 57.7926 70.5649 57.7926 69.9819C57.7926 69.3988 58.5487 68.9307 59.4856 68.9307L59.4856 67.8221C58.5487 67.8221 57.7926 67.3541 57.7926 66.771C57.7926 66.188 58.5487 65.7199 59.4856 65.7199L59.4856 64.6113C58.5487 64.6113 57.7926 64.1432 57.7926 63.5602C57.7926 62.9771 58.5487 62.509 59.4856 62.509L59.4856 61.4004C58.5487 61.4004 57.7926 60.9323 57.7926 60.3493C57.7926 59.7662 58.5487 59.2982 59.4856 59.2982L59.4856 58.206C58.5487 58.206 57.7926 57.7379 57.7926 57.1549C57.7926 57.1549 57.7926 57.1549 57.7926 57.1467C57.7926 57.1467 57.7926 57.1467 57.7926 57.1384C57.7926 56.5554 58.5487 56.0873 59.4856 56.0873L59.4856 54.9951C58.5487 54.9951 57.7926 54.5271 57.7926 53.944C57.7926 53.944 57.7926 53.944 57.7926 53.9358C57.7926 53.9358 57.7926 53.9358 57.7926 53.9276C57.7926 53.3445 58.5487 52.8765 59.4856 52.8765L59.4856 51.7843C58.5487 51.7843 57.7926 51.3162 57.7926 50.7331C57.7926 50.7331 57.7926 50.7332 57.7926 50.7249C57.7926 50.7249 57.7926 50.7249 57.7926 50.7167C57.7926 50.1337 58.5487 49.6656 59.4856 49.6656L59.4856 48.5734C58.5487 48.5734 57.7926 48.1053 57.7926 47.5223C57.7926 47.5223 57.7926 47.5223 57.7926 47.5141C57.7926 47.5141 57.7926 47.5141 57.7926 47.5059C57.7926 46.9228 58.5487 46.4547 59.4856 46.4547L59.4856 45.3626C58.5487 45.3626 57.7926 44.8945 57.7926 44.3114C57.7926 44.3114 57.7926 44.3114 57.7926 44.3032C57.7926 44.3032 57.7926 44.3032 57.7926 44.295C57.7926 43.712 58.5487 43.2439 59.4856 43.2439L59.4856 42.1517C58.5487 42.1517 57.7926 41.6836 57.7926 41.1006C57.7926 41.1006 57.7926 41.1006 57.7926 41.0924C57.7926 41.0924 57.7926 41.0924 57.7926 41.0842C57.7926 40.5011 58.5487 40.033 59.4856 40.033L59.4856 38.9408C58.5487 38.9408 57.7926 38.4728 57.7926 37.8897C57.7926 37.8897 57.7926 37.8897 57.7926 37.8815C57.7926 37.8815 57.7926 37.8815 57.7926 37.8733C57.7926 37.2903 58.5487 36.8222 59.4856 36.8222L59.4856 35.73C58.5487 35.73 57.7926 35.2619 57.7926 34.6789C57.7926 34.6789 57.7926 34.6789 57.7926 34.6707C57.7926 34.6707 57.7926 34.6707 57.7926 34.6624C57.7926 34.0794 58.5487 33.6113 59.4856 33.6113L59.4856 32.5191C58.5487 32.5191 57.7926 32.0511 57.7926 31.468C57.7926 31.468 57.7926 31.468 57.7926 31.4598C57.7926 31.4598 57.7926 31.4598 57.7926 31.4516C57.7926 30.8685 58.5487 30.4005 59.4856 30.4005L59.4856 29.3083C58.5487 29.3083 57.7926 28.8402 57.7926 28.2572C57.7926 28.2572 57.7926 28.2571 57.7926 28.2489C57.7926 28.2489 57.7926 28.2489 57.7926 28.2407C57.7926 27.6577 58.5487 27.1896 59.4856 27.1896L59.4856 26.0974C58.5487 26.0974 57.7926 25.6293 57.7926 25.0463C57.7926 25.0463 57.7926 25.0463 57.7926 25.0381C57.7926 25.0381 57.7926 25.0381 57.7926 25.0299C57.7926 24.4468 58.5487 23.9787 59.4856 23.9787L59.4856 22.8866C58.5487 22.8866 57.7926 22.4185 57.7926 21.8354C57.7926 21.8354 57.7926 21.8354 57.7926 21.8272C57.7926 21.8272 57.7926 21.8272 57.7926 21.819C57.7926 21.236 58.5487 20.7679 59.4856 20.7679L59.4856 19.6757C58.5487 19.6757 57.7926 19.2076 57.7926 18.6246C57.7926 18.6246 57.7926 18.6246 57.7926 18.6164C57.7926 18.6164 57.7926 18.6164 57.7926 18.6082C57.7926 18.0251 58.5487 17.557 59.4856 17.557L59.4856 16.4649C58.5487 16.4649 57.7926 15.9968 57.7926 15.4137C57.7926 14.8307 58.5487 14.3626 59.4856 14.3626L59.4856 13.254C58.5487 13.254 57.7926 12.7859 57.7926 12.2029C57.7926 11.6198 58.5487 11.1518 59.4856 11.1518L59.4856 10.0431C58.5487 10.0431 57.7926 9.57506 57.7926 8.99202C57.7926 8.40897 58.5487 7.9409 59.4856 7.9409L59.4856 6.83228C58.5487 6.83228 57.7926 6.3642 57.7926 5.78116C57.7926 5.19811 58.5487 4.73004 59.4856 4.73004L59.4856 3.62143C58.5487 3.62143 57.7926 3.15335 57.7926 2.5703C57.7926 1.98726 58.5487 1.51918 59.4856 1.51918L59.4856 -2.60388e-05L58.0309 -2.61659e-05C58.0309 0.936131 57.5625 1.69163 56.979 1.69163C56.3954 1.69163 55.927 0.936131 55.927 -2.63497e-05L54.8175 -2.64466e-05C54.8175 0.936131 54.349 1.69163 53.7655 1.69163C53.182 1.69163 52.7135 0.936131 52.7135 -2.66304e-05L51.604 -2.67273e-05C51.604 0.936131 51.1356 1.69163 50.5521 1.69163C49.9686 1.69163 49.5001 0.936131 49.5001 -2.69111e-05L48.3906 -2.7008e-05C48.3906 0.936131 47.9222 1.69163 47.3386 1.69163C46.7551 1.69163 46.2867 0.93613 46.2867 -2.71918e-05L45.1772 -2.72887e-05C45.1772 0.93613 44.7087 1.69163 44.1252 1.69163C43.5417 1.69163 43.0732 0.93613 43.0732 -2.74725e-05L41.9637 -2.75694e-05C41.9637 0.93613 41.4953 1.69163 40.9118 1.69163C40.3282 1.69163 39.8598 0.93613 39.8598 -2.77532e-05L38.7503 -2.78501e-05C38.7503 0.93613 38.2818 1.69163 37.6983 1.69163C37.1148 1.69163 36.6463 0.93613 36.6463 -2.80339e-05L35.5369 -2.81308e-05C35.5369 0.93613 35.0684 1.69163 34.4849 1.69163C33.9014 1.69163 33.4329 0.936129 33.4329 -2.83146e-05L32.3234 -2.84115e-05C32.3234 0.936129 31.8549 1.69163 31.2714 1.69163C30.6879 1.69163 30.2195 0.936129 30.2195 -2.85953e-05L29.11 -2.86922e-05C29.11 0.936129 28.6415 1.69163 28.058 1.69163C27.4745 1.69163 27.006 0.936129 27.006 -2.8876e-05L25.8965 -2.89729e-05C25.8965 0.936129 25.4281 1.69163 24.8446 1.69163C24.261 1.69163 23.7926 0.936128 23.7926 -2.91567e-05L22.6831 -2.92536e-05C22.6831 0.936128 22.2146 1.69163 21.6311 1.69163C21.0476 1.69163 20.5792 0.936128 20.5792 -2.94374e-05L19.4696 -2.95343e-05C19.4696 0.936128 19.0012 1.69163 18.4177 1.69163C17.8342 1.69163 17.3657 0.936128 17.3657 -2.97181e-05L16.2562 -2.9815e-05C16.2562 0.936128 15.7878 1.69163 15.2042 1.69163C14.6207 1.69163 14.1523 0.936128 14.1523 -2.99988e-05L13.0428 -3.00957e-05C13.0428 0.936128 12.5743 1.69163 11.9908 1.69163C11.4073 1.69163 10.9388 0.936127 10.9388 -3.02795e-05L9.82933 -3.03764e-05C9.82933 0.936127 9.36088 1.69163 8.77736 1.69163C8.19385 1.69163 7.72539 0.936127 7.72539 -3.05602e-05L6.61589 -3.06571e-05C6.61589 0.936127 6.14744 1.69163 5.56392 1.69163C4.98041 1.69163 4.51195 0.936127 4.51195 -3.08409e-05L3.40245 -3.09378e-05C3.40245 0.936127 2.93399 1.69163 2.35048 1.69163C1.76696 1.69163 1.29851 0.936127 1.29851 -3.11216e-05L-2.01029e-05 -3.1235e-05L-2.02358e-05 1.51918C0.936891 1.51918 1.69299 1.98725 1.69299 2.5703C1.69299 3.15335 0.93689 3.62143 -2.04197e-05 3.62143L-2.05167e-05 4.73003C0.93689 4.73003 1.69299 5.19811 1.69299 5.78115C1.69299 6.3642 0.93689 6.83228 -2.07007e-05 6.83228L-2.07976e-05 7.94089C0.93689 7.94089 1.69299 8.40897 1.69299 8.99201C1.69299 9.57506 0.93689 10.0431 -2.09816e-05 10.0431L-2.10786e-05 11.1517C0.93689 11.1517 1.69299 11.6198 1.69299 12.2029C1.69299 12.7859 0.93689 13.254 -2.12625e-05 13.254L-2.13595e-05 14.3626C0.936889 14.3626 1.69299 14.8307 1.69299 15.4137C1.69299 15.9968 0.936889 16.4649 -2.15434e-05 16.4649L-2.1639e-05 17.557C0.936889 17.557 1.69299 18.0251 1.69299 18.6082C1.69299 18.6082 1.69299 18.6082 1.69299 18.6164C1.69299 18.6164 1.69299 18.6164 1.69299 18.6246C1.69299 19.2076 0.936889 19.6757 -2.18244e-05 19.6757L-2.19199e-05 20.7679C0.936889 20.7679 1.69299 21.236 1.69299 21.819C1.69299 21.819 1.69299 21.819 1.69299 21.8272C1.69299 21.8272 1.69299 21.8272 1.69299 21.8354C1.69299 22.4185 0.936889 22.8866 -2.21053e-05 22.8866L-2.22009e-05 23.9787C0.936889 23.9787 1.69299 24.4468 1.69299 25.0299C1.69299 25.0299 1.69299 25.0299 1.69299 25.0381C1.69299 25.0381 1.69299 25.0381 1.69299 25.0463C1.69299 25.6293 0.936888 26.0974 -2.23862e-05 26.0974L-2.24818e-05 27.1896C0.936888 27.1896 1.69299 27.6577 1.69299 28.2407C1.69299 28.2407 1.69299 28.2407 1.69299 28.2489C1.69299 28.2489 1.69299 28.2489 1.69299 28.2571C1.69299 28.8402 0.936888 29.3083 -2.26671e-05 29.3083L-2.27627e-05 30.4005C0.936888 30.4005 1.69299 30.8685 1.69299 31.4516C1.69299 31.4516 1.69299 31.4516 1.69299 31.4598C1.69299 31.4598 1.69299 31.4598 1.69299 31.468C1.69299 32.0511 0.936888 32.5191 -2.29481e-05 32.5191L-2.30436e-05 33.6113C0.936888 33.6113 1.69299 34.0794 1.69299 34.6624C1.69299 34.6624 1.69299 34.6624 1.69299 34.6706C1.69299 34.6706 1.69299 34.6706 1.69299 34.6789C1.69299 35.2619 0.936888 35.73 -2.3229e-05 35.73L-2.33246e-05 36.8222C0.936887 36.8222 1.69299 37.2902 1.69299 37.8733C1.69299 37.8733 1.69299 37.8733 1.69299 37.8815C1.69299 37.8815 1.69299 37.8815 1.69299 37.8897C1.69299 38.4728 0.936887 38.9408 -2.35099e-05 38.9408L-2.36055e-05 40.033C0.936887 40.033 1.69299 40.5011 1.69299 41.0841C1.69299 41.0841 1.69299 41.0842 1.69299 41.0924C1.69299 41.0924 1.69299 41.0924 1.69299 41.1006C1.69299 41.6836 0.936887 42.1517 -2.37909e-05 42.1517L-2.38864e-05 43.2439C0.936887 43.2439 1.69299 43.712 1.69299 44.295C1.69299 44.295 1.69299 44.295 1.69299 44.3032C1.69299 44.3032 1.69299 44.3032 1.69299 44.3114C1.69299 44.8945 0.936887 45.3626 -2.40718e-05 45.3626L-2.41673e-05 46.4547C0.936887 46.4547 1.69299 46.9228 1.69299 47.5059C1.69299 47.5059 1.69299 47.5059 1.69299 47.5141C1.69299 47.5141 1.69299 47.5141 1.69299 47.5223C1.69299 48.1053 0.936886 48.5734 -2.43527e-05 48.5734L-2.44483e-05 49.6656C0.936886 49.6656 1.69299 50.1337 1.69299 50.7167C1.69299 50.7167 1.69299 50.7167 1.69299 50.7249C1.69299 50.7249 1.69299 50.7249 1.69299 50.7331C1.69299 51.3162 0.936886 51.7843 -2.46336e-05 51.7843L-2.47292e-05 52.8765C0.936886 52.8765 1.69299 53.3445 1.69299 53.9276C1.69299 53.9276 1.69299 53.9276 1.69299 53.9358C1.69299 53.9358 1.69299 53.9358 1.69299 53.944C1.69299 54.527 0.936886 54.9951 -2.49146e-05 54.9951L-2.50101e-05 56.0873C0.936886 56.0873 1.69299 56.5554 1.69299 57.1384C1.69299 57.1384 1.69299 57.1384 1.69299 57.1466C1.69299 57.1466 1.69299 57.1466 1.69299 57.1549C1.69299 57.7379 0.936886 58.206 -2.51955e-05 58.206L-2.52911e-05 59.2982C0.936886 59.2982 1.69299 59.7662 1.69299 60.3493C1.69299 60.9323 0.936885 61.4004 -2.5475e-05 61.4004L-2.5572e-05 62.509C0.936885 62.509 1.69299 62.9771 1.69299 63.5601C1.69299 64.1432 0.936885 64.6113 -2.57559e-05 64.6113L-2.58529e-05 65.7199C0.936885 65.7199 1.69299 66.188 1.69299 66.771C1.69299 67.354 0.936885 67.8221 -2.60368e-05 67.8221L-2.61338e-05 68.9307C0.936885 68.9307 1.69299 69.3988 1.69299 69.9819C1.69299 70.5649 0.936884 71.033 -2.63178e-05 71.033L-2.64148e-05 72.1416C0.936884 72.1416 1.69299 72.6097 1.69299 73.1927C1.69299 73.7758 0.936884 74.2438 -2.65987e-05 74.2438ZM4.10924 3.98275L55.475 3.98275L55.475 71.3286L4.10924 71.3286L4.10924 3.98275Z" fill="#50667F"/>
<path fill-rule="evenodd" clip-rule="evenodd" d="M54.2434 70.2773L5.31546 70.2773L5.31546 5.23803L54.2434 5.23803L54.2434 70.2773ZM52.761 68.8011L52.761 6.71431L6.79792 6.71431L6.79792 68.8011L52.761 68.8011Z" fill="#50667F"/>
<path d="M78.412 3.46729V34.6721H75.5121V3.46729H78.412ZM90.4578 33.2902V34.6721H78.2782V33.2902H90.4578ZM93.1793 27.4504L90.5917 34.6721H83.1857L84.7918 33.2902C86.3682 33.2902 87.6471 33.0525 88.6287 32.577C89.6399 32.0717 90.4578 31.3733 91.0824 30.4818C91.707 29.5902 92.2573 28.5798 92.7332 27.4504H93.1793ZM75.6459 31.4179V34.6721H72.0768V34.2263C72.0768 34.2263 72.166 34.2263 72.3445 34.2263C72.5527 34.2263 72.6568 34.2263 72.6568 34.2263C73.4301 34.2263 74.0844 33.9589 74.6198 33.4239C75.1849 32.8593 75.4823 32.1906 75.5121 31.4179H75.6459ZM75.6459 6.72151H75.5121C75.4823 5.94881 75.1849 5.295 74.6198 4.76006C74.0844 4.1954 73.4301 3.91307 72.6568 3.91307C72.6568 3.91307 72.5527 3.91307 72.3445 3.91307C72.166 3.91307 72.0768 3.91307 72.0768 3.91307V3.46729H75.6459V6.72151ZM78.2782 6.72151V3.46729H81.8473V3.91307C81.8176 3.91307 81.7135 3.91307 81.535 3.91307C81.3565 3.91307 81.2673 3.91307 81.2673 3.91307C80.494 3.91307 79.8248 4.1954 79.2597 4.76006C78.7243 5.295 78.4417 5.94881 78.412 6.72151H78.2782Z" fill="#8BA892"/>
<path d="M109.442 7.30102L121.711 34.4047H118.187L108.684 11.2685L109.442 7.30102ZM100.832 31.4179C100.505 32.3095 100.549 33.0079 100.966 33.5131C101.382 33.9886 101.858 34.2263 102.393 34.2263H102.75V34.6721H94.2288V34.2263C94.2288 34.2263 94.2883 34.2263 94.4072 34.2263C94.5262 34.2263 94.5857 34.2263 94.5857 34.2263C95.2103 34.2263 95.8498 34.0183 96.5041 33.6023C97.1585 33.1565 97.7236 32.4284 98.1995 31.4179H100.832ZM109.442 7.30102L109.755 10.3769L99.5379 34.5384H96.7272L107.301 11.8926C107.301 11.8926 107.375 11.7143 107.524 11.3577C107.702 11.001 107.896 10.5701 108.104 10.0649C108.342 9.52994 108.55 9.00986 108.728 8.50464C108.907 7.99942 109.011 7.59821 109.041 7.30102H109.442ZM114.707 24.2854V25.6227H102.884V24.2854H114.707ZM116.982 31.4179H120.373C120.819 32.4284 121.369 33.1565 122.023 33.6023C122.678 34.0183 123.302 34.2263 123.897 34.2263C123.897 34.2263 123.957 34.2263 124.076 34.2263C124.195 34.2263 124.254 34.2263 124.254 34.2263V34.6721H115.108V34.2263H115.465C115.971 34.2263 116.432 33.9886 116.848 33.5131C117.265 33.0079 117.309 32.3095 116.982 31.4179Z" fill="#8BA892"/>
<path d="M77.832 40.6159H83.7211C85.6246 40.6159 87.2605 40.9577 88.6287 41.6412C89.9968 42.3247 91.0527 43.3203 91.7963 44.628C92.5398 45.9059 92.9116 47.4364 92.9116 49.2195C92.9116 50.5866 92.6439 51.8199 92.1086 52.9195C91.5732 53.9894 90.8594 54.8958 89.9671 55.6388C89.0748 56.3818 88.0635 56.9464 86.9333 57.3328C85.8031 57.6894 84.6283 57.8232 83.4088 57.734C82.2191 57.6448 81.0591 57.3031 79.9289 56.7087V56.2629C79.9289 56.2629 80.1817 56.3075 80.6873 56.3966C81.193 56.4561 81.8324 56.4709 82.6057 56.4412C83.4088 56.3818 84.2416 56.2183 85.1041 55.9509C85.9964 55.6537 86.8143 55.1484 87.5579 54.4352C88.3312 53.7219 88.9112 52.7264 89.2979 51.4484C89.3871 51.1215 89.4615 50.7203 89.5209 50.2448C89.5804 49.7396 89.5953 49.2492 89.5656 48.7737C89.5358 46.7231 89.0004 45.0737 87.9594 43.8255C86.9184 42.5774 85.4462 41.9533 83.5426 41.9533H78.2782C78.2782 41.9533 78.2335 41.8492 78.1443 41.6412C78.0848 41.4035 78.0105 41.1806 77.9212 40.9725C77.8618 40.7348 77.832 40.6159 77.832 40.6159ZM78.412 40.6159V71.8208H75.5121V40.6159H78.412ZM75.6459 68.5665V71.8208H72.0768V71.375C72.0768 71.375 72.166 71.375 72.3445 71.375C72.5527 71.375 72.6568 71.375 72.6568 71.375C73.4301 71.375 74.0844 71.1075 74.6198 70.5726C75.1849 70.0079 75.4823 69.3392 75.5121 68.5665H75.6459ZM75.6459 43.8701H75.5121C75.5121 43.0974 75.2295 42.4436 74.6644 41.9087C74.0993 41.344 73.4301 41.0617 72.6568 41.0617C72.6568 41.0617 72.5675 41.0617 72.3891 41.0617C72.2106 41.0617 72.1214 41.0617 72.1214 41.0617L72.0768 40.6159H75.6459V43.8701ZM78.2782 68.5665H78.412C78.4417 69.3392 78.7243 70.0079 79.2597 70.5726C79.8248 71.1075 80.494 71.375 81.2673 71.375C81.2673 71.375 81.3565 71.375 81.535 71.375C81.7432 71.375 81.8473 71.375 81.8473 71.375V71.8208H78.2782V68.5665Z" fill="#8BA892"/>
<path d="M111.848 44.4496C113.93 44.4496 115.878 44.7914 117.693 45.4749C119.537 46.1288 121.143 47.0798 122.511 48.328C123.909 49.5762 124.995 51.0621 125.768 52.7858C126.541 54.4798 126.928 56.3669 126.928 58.4472C126.928 60.5276 126.541 62.4296 125.768 64.1533C124.995 65.8473 123.909 67.3183 122.511 68.5665C121.143 69.8147 119.537 70.7806 117.693 71.4641C115.878 72.1179 113.93 72.4449 111.848 72.4449C109.766 72.4449 107.818 72.1179 106.004 71.4641C104.189 70.7806 102.583 69.8147 101.185 68.5665C99.8173 67.3183 98.7466 65.8473 97.9732 64.1533C97.1999 62.4296 96.8133 60.5276 96.8133 58.4472C96.8133 56.3669 97.1999 54.4798 97.9732 52.7858C98.7466 51.0621 99.8173 49.5762 101.185 48.328C102.583 47.0798 104.189 46.1288 106.004 45.4749C107.818 44.7914 109.766 44.4496 111.848 44.4496ZM111.848 71.1075C114.049 71.1075 116.042 70.5726 117.827 69.5027C119.611 68.4328 121.024 66.9469 122.065 65.0448C123.106 63.1428 123.626 60.9436 123.626 58.4472C123.626 55.9211 123.106 53.7219 122.065 51.8497C121.024 49.9476 119.611 48.4617 117.827 47.3918C116.042 46.3219 114.049 45.787 111.848 45.787C109.677 45.787 107.699 46.3219 105.915 47.3918C104.13 48.4617 102.717 49.9476 101.676 51.8497C100.635 53.7219 100.115 55.9211 100.115 58.4472C100.115 60.9436 100.635 63.1428 101.676 65.0448C102.717 66.9469 104.13 68.4328 105.915 69.5027C107.699 70.5726 109.677 71.1075 111.848 71.1075Z" fill="#8BA892"/>
<path d="M139.572 44.4496C140.405 44.4496 141.134 44.4794 141.758 44.5388C142.383 44.5982 142.918 44.6725 143.364 44.7617C143.84 44.8211 144.242 44.9103 144.569 45.0292C144.926 45.1183 145.238 45.2075 145.506 45.2966L145.55 49.7099H145.015C145.015 48.4914 144.599 47.5404 143.766 46.8569C142.933 46.1436 141.639 45.787 139.884 45.787C138.397 45.787 137.118 46.2031 136.048 47.0352C135.007 47.8376 134.501 48.8332 134.531 50.0219C134.531 50.4083 134.575 50.8095 134.665 51.2256C134.784 51.6119 134.962 51.9982 135.2 52.3846C135.468 52.7709 135.825 53.1573 136.271 53.5436L145.283 60.4979C145.967 61.0625 146.473 61.7906 146.8 62.6822C147.127 63.544 147.305 64.4059 147.335 65.2677C147.365 66.5754 147.023 67.779 146.309 68.8786C145.595 69.9782 144.628 70.8549 143.409 71.5087C142.219 72.1328 140.896 72.4449 139.438 72.4449C138.576 72.4449 137.639 72.3706 136.628 72.222C135.646 72.0734 134.724 71.8505 133.862 71.5533C132.999 71.2264 132.285 70.8252 131.72 70.3497C131.631 69.9336 131.586 69.4135 131.586 68.7894C131.586 68.1356 131.631 67.4521 131.72 66.7388C131.839 66.0256 131.988 65.3866 132.166 64.822H132.702C132.583 66.1593 132.776 67.3035 133.282 68.2545C133.787 69.2055 134.531 69.9336 135.512 70.4388C136.494 70.9143 137.639 71.1372 138.948 71.1075C140.792 71.0481 142.234 70.5874 143.275 69.7256C144.346 68.834 144.881 67.6601 144.881 66.2039C144.881 65.4906 144.747 64.8517 144.48 64.287C144.242 63.6926 143.84 63.1428 143.275 62.6376L134.352 55.7725C133.52 55.0593 132.954 54.2717 132.657 53.4099C132.36 52.548 132.211 51.7308 132.211 50.9581C132.211 49.7396 132.538 48.64 133.192 47.6593C133.847 46.6786 134.724 45.9059 135.825 45.3412C136.955 44.7468 138.204 44.4496 139.572 44.4496ZM145.461 44.8509L145.506 45.6533H142.338V44.8509H145.461Z" fill="#8BA892"/>
<path d="M164.106 45.2075V71.8208H161.206V45.2075H164.106ZM174.903 45.0292V46.3665H150.41V45.0292H174.903ZM174.903 46.2774V49.3533H174.412V48.64C174.412 48.0159 174.204 47.4958 173.787 47.0798C173.401 46.634 172.865 46.3962 172.181 46.3665V46.2774H174.903ZM174.903 44.3159V45.4749L169.906 45.0292C170.501 45.0292 171.125 44.9994 171.78 44.94C172.464 44.8509 173.088 44.7468 173.654 44.628C174.219 44.5091 174.635 44.4051 174.903 44.3159ZM161.295 68.9677V71.8208H158.039V71.375C158.068 71.375 158.158 71.375 158.306 71.375C158.485 71.375 158.574 71.375 158.574 71.375C159.288 71.375 159.898 71.1372 160.403 70.6617C160.909 70.1862 161.176 69.6216 161.206 68.9677H161.295ZM163.972 68.9677H164.106C164.136 69.6216 164.404 70.1862 164.909 70.6617C165.415 71.1372 166.025 71.375 166.738 71.375C166.738 71.375 166.813 71.375 166.961 71.375C167.14 71.375 167.229 71.375 167.229 71.375V71.8208H163.972V68.9677ZM153.131 46.2774V46.3665C152.447 46.3962 151.897 46.634 151.48 47.0798C151.094 47.4958 150.9 48.0159 150.9 48.64V49.3533H150.41V46.2774H153.131ZM150.41 44.3159C150.677 44.4051 151.079 44.5091 151.614 44.628C152.179 44.7468 152.804 44.8509 153.488 44.94C154.172 44.9994 154.812 45.0292 155.406 45.0292L150.41 45.4749V44.3159Z" fill="#8BA892"/>
<path d="M187.386 44.4496L199.655 71.5533H196.131L186.628 48.4171L187.386 44.4496ZM178.776 68.5665C178.449 69.4581 178.493 70.1565 178.91 70.6617C179.326 71.1372 179.802 71.375 180.337 71.375H180.694V71.8208H172.173V71.375C172.173 71.375 172.232 71.375 172.351 71.375C172.47 71.375 172.53 71.375 172.53 71.375C173.154 71.375 173.794 71.1669 174.448 70.7509C175.103 70.3051 175.668 69.577 176.144 68.5665H178.776ZM187.386 44.4496L187.699 47.5256L177.482 71.687H174.671L185.245 49.0412C185.245 49.0412 185.319 48.8629 185.468 48.5063C185.646 48.1497 185.84 47.7187 186.048 47.2135C186.286 46.6786 186.494 46.1585 186.673 45.6533C186.851 45.148 186.955 44.7468 186.985 44.4496H187.386ZM192.651 61.434V62.7714H180.828V61.434H192.651ZM194.926 68.5665H198.317C198.763 69.577 199.313 70.3051 199.968 70.7509C200.622 71.1669 201.247 71.375 201.841 71.375C201.841 71.375 201.901 71.375 202.02 71.375C202.139 71.375 202.198 71.375 202.198 71.375V71.8208H193.052V71.375H193.409C193.915 71.375 194.376 71.1372 194.792 70.6617C195.209 70.1565 195.253 69.4581 194.926 68.5665Z" fill="#8BA892"/>
<path d="M210.5 45.0737V71.8208H207.645V45.0737H210.5ZM222.502 70.4388L222.412 71.8208H210.411V70.4388H222.502ZM225 65.4461L222.546 71.8208H215.765L217.282 70.4388C218.769 70.4388 219.959 70.2308 220.851 69.8147C221.773 69.3689 222.517 68.7746 223.082 68.0316C223.647 67.2589 224.137 66.3971 224.554 65.4461H225ZM207.734 68.9677L208.314 71.8208H204.433V71.375C204.433 71.375 204.537 71.375 204.745 71.375C204.953 71.375 205.057 71.375 205.057 71.375C205.801 71.375 206.411 71.1372 206.887 70.6617C207.363 70.1862 207.615 69.6216 207.645 68.9677H207.734ZM210.367 47.9268V45.0737H213.668V45.5195C213.668 45.5195 213.579 45.5195 213.4 45.5195C213.222 45.5195 213.133 45.5195 213.133 45.5195C212.419 45.5195 211.794 45.7573 211.259 46.2328C210.753 46.6786 210.5 47.2432 210.5 47.9268H210.367ZM207.734 47.9268H207.645C207.615 47.2432 207.348 46.6786 206.842 46.2328C206.336 45.7573 205.712 45.5195 204.968 45.5195C204.968 45.5195 204.879 45.5195 204.701 45.5195C204.522 45.5195 204.433 45.5195 204.433 45.5195V45.0737H207.734V47.9268Z" fill="#8BA892"/>
<path d="M12.5887 88.1315C13.7107 88.1315 14.636 88.2644 15.3647 88.5302C16.105 88.7845 16.6601 89.1658 17.0303 89.6744C17.4004 90.1713 17.5855 90.7897 17.5855 91.5293C17.5855 91.9801 17.4987 92.4539 17.3252 92.9509C17.1517 93.4363 16.851 93.8928 16.423 94.3204C15.9951 94.7365 15.3994 95.0774 14.636 95.3433C13.8726 95.6091 12.8952 95.742 11.7038 95.742C11.646 95.742 11.5477 95.742 11.4089 95.742C11.2701 95.742 11.1429 95.7362 11.0272 95.7246L10.8884 98.2384C10.8768 98.5504 10.8595 98.822 10.8363 99.0532C10.8132 99.2728 10.7901 99.4577 10.7669 99.6079C10.952 99.5964 11.1313 99.5848 11.3048 99.5732C11.4783 99.5617 11.6518 99.5559 11.8253 99.5559C12.0104 99.5443 12.1896 99.5328 12.3631 99.5212L12.3284 100.301H8.14709L8.18179 99.7293C8.62133 99.7062 8.92784 99.6079 9.10134 99.4346C9.27484 99.2496 9.37894 99.0012 9.41364 98.6891C9.44834 98.3655 9.47148 98.0014 9.48304 97.5969L9.88209 90.1078C9.90523 89.8766 9.92258 89.657 9.93414 89.449C9.95728 89.2294 9.98041 89.0329 10.0035 88.8596C9.79534 88.8711 9.58136 88.8827 9.36159 88.8943C9.15339 88.9058 8.94519 88.9174 8.73699 88.9289L8.78904 88.1661C9.40208 88.1546 10.0209 88.1488 10.6455 88.1488C11.2701 88.1372 11.9178 88.1315 12.5887 88.1315ZM12.5193 88.8076C12.1607 88.8076 11.8947 88.8885 11.7212 89.0503C11.5477 89.2005 11.4378 89.4259 11.3915 89.7264C11.3453 90.0153 11.3106 90.3678 11.2874 90.7839L11.0619 94.9965C11.2817 95.0196 11.4725 95.037 11.6344 95.0485C11.7964 95.0485 11.9814 95.0485 12.1896 95.0485C12.8489 95.0485 13.4562 94.9214 14.0114 94.6671C14.5782 94.4129 15.035 94.0431 15.382 93.5576C15.729 93.0722 15.9199 92.4944 15.9546 91.824C15.9777 91.2808 15.9141 90.8186 15.7637 90.4372C15.6134 90.0442 15.382 89.7322 15.0697 89.501C14.769 89.2583 14.3989 89.0849 13.9593 88.9809C13.5314 88.8654 13.0514 88.8076 12.5193 88.8076Z" fill="#50667F"/>
<path d="M23.1743 91.4426C23.5213 91.4426 23.903 91.4715 24.3194 91.5293C24.7358 91.5756 25.1291 91.6449 25.4992 91.7374C25.4067 92.4308 25.3142 93.1242 25.2216 93.8177C25.1407 94.4996 25.0597 95.1526 24.9787 95.7767C24.9093 96.3892 24.8515 96.9439 24.8052 97.4409C24.759 97.9263 24.7358 98.3077 24.7358 98.5851C24.7358 98.8162 24.7532 99.0474 24.7879 99.2785C24.8226 99.5097 24.9672 99.6252 25.2216 99.6252C25.4183 99.6252 25.6323 99.4981 25.8636 99.2439C26.1065 98.9896 26.3147 98.5562 26.4882 97.9437L26.974 98.0477C26.9393 98.2557 26.8641 98.4984 26.7484 98.7758C26.6443 99.0416 26.4998 99.3074 26.3147 99.5732C26.1296 99.8391 25.9041 100.059 25.638 100.232C25.372 100.405 25.0655 100.492 24.7185 100.492C24.2558 100.492 23.9262 100.348 23.7295 100.059C23.5329 99.7697 23.4346 99.3941 23.4346 98.9318C23.4346 98.5966 23.4635 98.2326 23.5213 97.8396C23.5907 97.4467 23.6659 97.0364 23.7469 96.6088H23.6948C23.4172 97.464 23.1281 98.1517 22.8273 98.6718C22.5382 99.1803 22.2432 99.5675 21.9425 99.8333C21.6533 100.099 21.3699 100.272 21.0923 100.353C20.8147 100.446 20.5545 100.492 20.3116 100.492C19.687 100.492 19.1607 100.261 18.7327 99.7986C18.3163 99.3363 18.1081 98.562 18.1081 97.4756C18.1081 96.6666 18.2122 95.898 18.4204 95.1699C18.6286 94.4418 18.9409 93.8003 19.3573 93.2456C19.7853 92.6793 20.3174 92.2401 20.9535 91.9281C21.5897 91.6045 22.33 91.4426 23.1743 91.4426ZM22.6365 92.0667C22.116 92.0667 21.6591 92.2112 21.2658 92.5001C20.8841 92.7891 20.5661 93.182 20.3116 93.679C20.0571 94.1644 19.8663 94.7134 19.739 95.3259C19.6234 95.9269 19.5655 96.5452 19.5655 97.1809C19.5655 97.9205 19.6465 98.5331 19.8084 99.0185C19.9704 99.4923 20.2653 99.7293 20.6933 99.7293C21.0056 99.7293 21.3179 99.5732 21.6302 99.2612C21.9541 98.9491 22.2548 98.5331 22.5324 98.013C22.81 97.4814 23.0587 96.8919 23.2784 96.2447C23.4982 95.586 23.6717 94.9156 23.7989 94.2337C23.9262 93.5519 23.9898 92.8989 23.9898 92.2748C23.8163 92.2054 23.6139 92.1534 23.3825 92.1188C23.1512 92.0841 22.9025 92.0667 22.6365 92.0667Z" fill="#50667F"/>
<path d="M28.7238 100.301C28.7122 100.22 28.7064 100.151 28.7064 100.093C28.7064 100.024 28.7064 99.9431 28.7064 99.8506C28.7064 99.6541 28.7122 99.423 28.7238 99.1572C28.7353 98.8798 28.7585 98.5157 28.7932 98.065C28.8394 97.6143 28.903 97.0248 28.984 96.2967C29.065 95.5455 29.1286 94.9792 29.1749 94.5978C29.2211 94.2164 29.2558 93.939 29.279 93.7657C29.3021 93.5808 29.3137 93.4305 29.3137 93.3149C29.3252 93.0838 29.3079 92.8584 29.2616 92.6388C29.2269 92.4192 29.0881 92.3094 28.8452 92.3094C28.6601 92.3094 28.4462 92.4366 28.2033 92.6908C27.9604 92.9451 27.7522 93.3785 27.5787 93.991L27.0929 93.887C27.1276 93.679 27.197 93.4421 27.3011 93.1762C27.4167 92.8989 27.5671 92.6273 27.7522 92.3615C27.9372 92.0956 28.1628 91.876 28.4288 91.7027C28.6948 91.5293 29.0014 91.4426 29.3484 91.4426C29.8689 91.4426 30.2159 91.6218 30.3894 91.9801C30.5629 92.3383 30.638 92.818 30.6149 93.419C30.6033 93.6732 30.5686 93.9564 30.5108 94.2684C30.4645 94.5689 30.4125 94.8867 30.3547 95.2219H30.4067C30.7421 94.2164 31.0891 93.4421 31.4477 92.8989C31.8178 92.3557 32.188 91.9801 32.5581 91.772C32.9398 91.5524 33.3157 91.4426 33.6859 91.4426C34.0329 91.4426 34.322 91.5351 34.5534 91.72C34.7847 91.8934 34.9004 92.1361 34.9004 92.4481C34.9004 92.6562 34.8252 92.8469 34.6748 93.0202C34.536 93.1936 34.3452 93.2803 34.1023 93.2803C33.8941 93.2803 33.7148 93.2167 33.5644 93.0896C33.414 92.9624 33.3273 92.7833 33.3042 92.5522C32.9803 92.4828 32.6622 92.5868 32.3499 92.8642C32.0492 93.1416 31.76 93.5403 31.4824 94.0604C31.2164 94.5689 30.9793 95.141 30.7711 95.7767C30.5744 96.4123 30.4183 97.0595 30.3026 97.7183C30.1869 98.3771 30.1291 98.9896 30.1291 99.5559C30.1291 99.7293 30.1291 99.8622 30.1291 99.9546C30.1407 100.036 30.1522 100.151 30.1638 100.301H28.7238Z" fill="#50667F"/>
<path d="M40.3041 91.4426C40.6511 91.4426 41.0328 91.4715 41.4492 91.5293C41.8656 91.5756 42.2588 91.6449 42.629 91.7374C42.5364 92.4308 42.4439 93.1242 42.3514 93.8177C42.2704 94.4996 42.1894 95.1526 42.1085 95.7767C42.0391 96.3892 41.9812 96.9439 41.935 97.4409C41.8887 97.9263 41.8656 98.3077 41.8656 98.5851C41.8656 98.8162 41.8829 99.0474 41.9176 99.2785C41.9523 99.5097 42.0969 99.6252 42.3514 99.6252C42.548 99.6252 42.762 99.4981 42.9933 99.2439C43.2362 98.9896 43.4444 98.5562 43.6179 97.9437L44.1037 98.0477C44.069 98.2557 43.9938 98.4984 43.8781 98.7758C43.774 99.0416 43.6295 99.3074 43.4444 99.5732C43.2593 99.8391 43.0338 100.059 42.7678 100.232C42.5017 100.405 42.1952 100.492 41.8482 100.492C41.3855 100.492 41.0559 100.348 40.8593 100.059C40.6626 99.7697 40.5643 99.3941 40.5643 98.9318C40.5643 98.5966 40.5932 98.2326 40.6511 97.8396C40.7205 97.4467 40.7956 97.0364 40.8766 96.6088H40.8246C40.547 97.464 40.2578 98.1517 39.9571 98.6718C39.6679 99.1803 39.3729 99.5675 39.0722 99.8333C38.783 100.099 38.4997 100.272 38.2221 100.353C37.9445 100.446 37.6842 100.492 37.4413 100.492C36.8167 100.492 36.2904 100.261 35.8625 99.7986C35.4461 99.3363 35.2379 98.562 35.2379 97.4756C35.2379 96.6666 35.342 95.898 35.5502 95.1699C35.7584 94.4418 36.0707 93.8003 36.4871 93.2456C36.915 92.6793 37.4471 92.2401 38.0833 91.9281C38.7194 91.6045 39.4597 91.4426 40.3041 91.4426ZM39.7662 92.0667C39.2457 92.0667 38.7888 92.2112 38.3956 92.5001C38.0139 92.7891 37.6958 93.182 37.4413 93.679C37.1868 94.1644 36.996 94.7134 36.8688 95.3259C36.7531 95.9269 36.6953 96.5452 36.6953 97.1809C36.6953 97.9205 36.7762 98.5331 36.9382 99.0185C37.1001 99.4923 37.395 99.7293 37.823 99.7293C38.1353 99.7293 38.4476 99.5732 38.7599 99.2612C39.0838 98.9491 39.3845 98.5331 39.6621 98.013C39.9397 97.4814 40.1884 96.8919 40.4082 96.2447C40.6279 95.586 40.8014 94.9156 40.9287 94.2337C41.0559 93.5519 41.1195 92.8989 41.1195 92.2748C40.946 92.2054 40.7436 92.1534 40.5123 92.1188C40.2809 92.0841 40.0322 92.0667 39.7662 92.0667Z" fill="#50667F"/>
<path d="M47.1027 100.492C46.5706 100.492 46.1311 100.348 45.7841 100.059C45.4371 99.7582 45.1768 99.3594 45.0033 98.8625C44.8414 98.3539 44.7604 97.7992 44.7604 97.1982C44.7604 96.0656 44.9455 95.0717 45.3156 94.2164C45.6973 93.3496 46.2641 92.6735 47.0159 92.1881C47.7678 91.6911 48.6989 91.4426 49.8093 91.4426C49.9828 91.4426 50.1505 91.4484 50.3124 91.46C50.4743 91.4715 50.6305 91.4889 50.7809 91.512C50.8271 91.0959 50.8734 90.6799 50.9197 90.2638C50.9775 89.8362 51.0295 89.449 51.0758 89.1023C51.1336 88.744 51.1857 88.4782 51.232 88.3048C51.0238 88.3164 50.8098 88.3279 50.59 88.3395C50.3818 88.3511 50.1736 88.3626 49.9654 88.3742L50.0348 87.6807C50.5437 87.6807 50.937 87.6576 51.2146 87.6114C51.5038 87.5652 51.7235 87.5074 51.8739 87.438C52.0243 87.3687 52.1457 87.2936 52.2383 87.2127H52.7414C52.6373 87.8368 52.5274 88.5995 52.4118 89.501C52.3077 90.3909 52.1746 91.5235 52.0127 92.8989C51.9317 93.6385 51.8508 94.3782 51.7698 95.1179C51.7004 95.846 51.6368 96.5221 51.579 97.1462C51.5327 97.7703 51.5096 98.2904 51.5096 98.7064C51.5096 98.926 51.5327 99.1341 51.579 99.3305C51.6252 99.527 51.7582 99.6252 51.978 99.6252C52.1746 99.6252 52.3886 99.4981 52.62 99.2439C52.8513 98.9896 53.0537 98.5562 53.2272 97.9437L53.7304 98.0477C53.6957 98.2557 53.6205 98.4984 53.5048 98.7758C53.4007 99.0416 53.2561 99.3074 53.0711 99.5732C52.886 99.8391 52.6604 100.059 52.3944 100.232C52.1284 100.405 51.8219 100.492 51.4749 100.492C51.0122 100.492 50.671 100.348 50.4512 100.059C50.243 99.7697 50.1389 99.3941 50.1389 98.9318C50.1389 98.5966 50.162 98.2499 50.2083 97.8916C50.2546 97.5218 50.3182 97.1231 50.3992 96.6955H50.3471C50.0348 97.7472 49.6878 98.5504 49.3061 99.1052C48.936 99.6484 48.5601 100.018 48.1784 100.215C47.8082 100.4 47.4497 100.492 47.1027 100.492ZM47.467 99.6773C47.8372 99.6773 48.2015 99.4692 48.5601 99.0532C48.9302 98.6371 49.2656 98.0939 49.5664 97.4236C49.8671 96.7532 50.0984 96.0425 50.2604 95.2912C50.3529 94.8867 50.4281 94.436 50.4859 93.939C50.5553 93.4421 50.6247 92.8758 50.6941 92.2401C50.509 92.1708 50.3124 92.1245 50.1042 92.1014C49.9076 92.0783 49.7109 92.0667 49.5143 92.0667C49.0285 92.0667 48.6005 92.165 48.2304 92.3615C47.8718 92.5579 47.5653 92.8238 47.3109 93.1589C47.0564 93.4941 46.8482 93.8697 46.6863 94.2858C46.5359 94.7018 46.426 95.1352 46.3566 95.586C46.2872 96.0367 46.2525 96.4759 46.2525 96.9035C46.2525 97.6894 46.3393 98.3482 46.5128 98.8798C46.6978 99.4114 47.0159 99.6773 47.467 99.6773Z" fill="#50667F"/>
<path d="M58.687 91.4426C59.3116 91.4426 59.8726 91.5929 60.37 91.8934C60.8673 92.1823 61.2606 92.6099 61.5498 93.1762C61.8389 93.7426 61.9835 94.4302 61.9835 95.2392C61.9835 96.1638 61.8158 97.0306 61.4804 97.8396C61.1449 98.6371 60.6591 99.2785 60.023 99.7639C59.3984 100.249 58.635 100.492 57.7328 100.492C56.9694 100.492 56.339 100.319 55.8416 99.972C55.3558 99.6253 54.9915 99.1572 54.7486 98.5678C54.5173 97.9783 54.4016 97.3253 54.4016 96.6088C54.4016 95.6726 54.5693 94.8116 54.9047 94.0257C55.2517 93.2398 55.7433 92.6157 56.3795 92.1534C57.0272 91.6796 57.7964 91.4426 58.687 91.4426ZM58.4268 92.0841C57.9178 92.0725 57.4783 92.2459 57.1082 92.6042C56.738 92.9509 56.4489 93.4247 56.2407 94.0257C56.044 94.6267 55.9399 95.297 55.9284 96.0367C55.9168 96.4296 55.9399 96.8457 55.9978 97.2849C56.0556 97.7241 56.1539 98.1344 56.2927 98.5157C56.4431 98.8971 56.6455 99.2092 56.9 99.4519C57.166 99.6946 57.4957 99.8217 57.8889 99.8333C58.3516 99.8448 58.7449 99.7235 59.0687 99.4692C59.3926 99.2034 59.6528 98.8625 59.8495 98.4464C60.0461 98.0303 60.1907 97.5854 60.2832 97.1115C60.3873 96.6377 60.4452 96.1927 60.4567 95.7767C60.4683 95.3721 60.4452 94.9561 60.3873 94.5285C60.3411 94.1008 60.2427 93.7021 60.0924 93.3323C59.942 92.9624 59.7338 92.6677 59.4678 92.4481C59.2017 92.217 58.8547 92.0956 58.4268 92.0841Z" fill="#50667F"/>
<path d="M64.525 100.301C64.5135 100.22 64.5077 100.151 64.5077 100.093C64.5077 100.024 64.5077 99.9431 64.5077 99.8506C64.5077 99.6541 64.5135 99.423 64.525 99.1572C64.5366 98.8798 64.5597 98.5157 64.5944 98.065C64.6407 97.6143 64.7043 97.0248 64.7853 96.2967C64.8662 95.5455 64.9299 94.9792 64.9761 94.5978C65.0224 94.2164 65.0571 93.939 65.0802 93.7657C65.1034 93.5808 65.1149 93.4305 65.1149 93.3149C65.1265 93.0838 65.1091 92.8584 65.0629 92.6388C65.0282 92.4192 64.8894 92.3094 64.6465 92.3094C64.4614 92.3094 64.2474 92.4366 64.0045 92.6908C63.7616 92.9451 63.5534 93.3785 63.3799 93.991L62.8941 93.887C62.9288 93.679 62.9982 93.4421 63.1023 93.1762C63.218 92.8989 63.3684 92.6273 63.5534 92.3615C63.7385 92.0956 63.964 91.876 64.2301 91.7027C64.4961 91.5293 64.8026 91.4426 65.1496 91.4426C65.6701 91.4426 66.0171 91.6218 66.1906 91.9801C66.3641 92.3383 66.4393 92.818 66.4162 93.419C66.4046 93.6732 66.3699 93.9564 66.3121 94.2684C66.2658 94.5689 66.2138 94.8867 66.1559 95.2219H66.208C66.5434 94.2164 66.8904 93.4421 67.249 92.8989C67.6191 92.3557 67.9892 91.9801 68.3594 91.772C68.7411 91.5524 69.117 91.4426 69.4871 91.4426C69.8341 91.4426 70.1233 91.5351 70.3546 91.72C70.5859 91.8934 70.7016 92.1361 70.7016 92.4481C70.7016 92.6562 70.6264 92.8469 70.4761 93.0202C70.3373 93.1936 70.1464 93.2803 69.9035 93.2803C69.6953 93.2803 69.516 93.2167 69.3657 93.0896C69.2153 92.9624 69.1286 92.7833 69.1054 92.5522C68.7816 92.4828 68.4635 92.5868 68.1512 92.8642C67.8504 93.1416 67.5613 93.5403 67.2837 94.0604C67.0176 94.5689 66.7805 95.141 66.5723 95.7767C66.3757 96.4123 66.2195 97.0595 66.1039 97.7183C65.9882 98.3771 65.9304 98.9896 65.9304 99.5559C65.9304 99.7293 65.9304 99.8622 65.9304 99.9546C65.9419 100.036 65.9535 100.151 65.9651 100.301H64.525Z" fill="#50667F"/>
<path d="M78.2276 100.492C77.6955 100.492 77.256 100.348 76.909 100.059C76.562 99.7582 76.3017 99.3594 76.1282 98.8625C75.9663 98.3539 75.8853 97.7992 75.8853 97.1982C75.8853 96.0656 76.0704 95.0717 76.4405 94.2164C76.8222 93.3496 77.389 92.6735 78.1408 92.1881C78.8927 91.6911 79.8238 91.4426 80.9342 91.4426C81.1077 91.4426 81.2754 91.4484 81.4373 91.46C81.5993 91.4715 81.7554 91.4889 81.9058 91.512C81.952 91.0959 81.9983 90.6799 82.0446 90.2638C82.1024 89.8362 82.1544 89.449 82.2007 89.1023C82.2585 88.744 82.3106 88.4782 82.3569 88.3048C82.1487 88.3164 81.9347 88.3279 81.7149 88.3395C81.5067 88.3511 81.2985 88.3626 81.0903 88.3742L81.1597 87.6807C81.6687 87.6807 82.0619 87.6576 82.3395 87.6114C82.6287 87.5652 82.8484 87.5074 82.9988 87.438C83.1492 87.3687 83.2706 87.2936 83.3632 87.2127H83.8663C83.7622 87.8368 83.6523 88.5995 83.5367 89.501C83.4326 90.3909 83.2995 91.5235 83.1376 92.8989C83.0566 93.6385 82.9757 94.3782 82.8947 95.1179C82.8253 95.846 82.7617 96.5221 82.7039 97.1462C82.6576 97.7703 82.6345 98.2904 82.6345 98.7064C82.6345 98.926 82.6576 99.1341 82.7039 99.3305C82.7501 99.527 82.8831 99.6252 83.1029 99.6252C83.2995 99.6252 83.5135 99.4981 83.7449 99.2439C83.9762 98.9896 84.1786 98.5562 84.3521 97.9437L84.8553 98.0477C84.8206 98.2557 84.7454 98.4984 84.6297 98.7758C84.5256 99.0416 84.381 99.3074 84.196 99.5732C84.0109 99.8391 83.7853 100.059 83.5193 100.232C83.2533 100.405 82.9468 100.492 82.5998 100.492C82.1371 100.492 81.7959 100.348 81.5761 100.059C81.3679 99.7697 81.2638 99.3941 81.2638 98.9318C81.2638 98.5966 81.287 98.2499 81.3332 97.8916C81.3795 97.5218 81.4431 97.1231 81.5241 96.6955H81.472C81.1597 97.7472 80.8127 98.5504 80.431 99.1052C80.0609 99.6484 79.685 100.018 79.3033 100.215C78.9331 100.4 78.5746 100.492 78.2276 100.492ZM78.5919 99.6773C78.9621 99.6773 79.3264 99.4692 79.685 99.0532C80.0551 98.6371 80.3905 98.0939 80.6913 97.4236C80.992 96.7532 81.2233 96.0425 81.3853 95.2912C81.4778 94.8867 81.553 94.436 81.6108 93.939C81.6802 93.4421 81.7496 92.8758 81.819 92.2401C81.634 92.1708 81.4373 92.1245 81.2291 92.1014C81.0325 92.0783 80.8359 92.0667 80.6392 92.0667C80.1534 92.0667 79.7255 92.165 79.3553 92.3615C78.9968 92.5579 78.6902 92.8238 78.4358 93.1589C78.1813 93.4941 77.9731 93.8697 77.8112 94.2858C77.6608 94.7018 77.5509 95.1352 77.4815 95.586C77.4121 96.0367 77.3774 96.4759 77.3774 96.9035C77.3774 97.6894 77.4642 98.3482 77.6377 98.8798C77.8227 99.4114 78.1408 99.6773 78.5919 99.6773Z" fill="#50667F"/>
<path d="M89.7425 91.4426C90.1589 91.4426 90.5522 91.5062 90.9223 91.6333C91.2925 91.7605 91.5932 91.9685 91.8245 92.2574C92.0559 92.5464 92.1715 92.9393 92.1715 93.4363C92.1715 93.9101 92.0096 94.3204 91.6857 94.6671C91.3619 95.0139 90.9397 95.3028 90.4192 95.5339C89.8987 95.7535 89.3435 95.9327 88.7536 96.0714C88.1637 96.2101 87.5969 96.3083 87.0533 96.3661C87.0533 97.0826 87.1227 97.6836 87.2615 98.169C87.4119 98.6544 87.6316 99.0185 87.9208 99.2612C88.21 99.5039 88.5801 99.6252 89.0312 99.6252C89.3666 99.6252 89.7021 99.5501 90.0375 99.3999C90.3845 99.2496 90.7141 99.0243 91.0264 98.7238C91.3387 98.4117 91.6221 98.013 91.8766 97.5276L92.4491 97.857C92.1253 98.458 91.7783 98.9549 91.4081 99.3479C91.038 99.7408 90.6332 100.03 90.1936 100.215C89.7541 100.4 89.2683 100.492 88.7362 100.492C87.6374 100.492 86.8277 100.151 86.3072 99.4692C85.7867 98.7758 85.5265 97.8685 85.5265 96.7475C85.5265 96.0771 85.6132 95.4242 85.7867 94.7885C85.9602 94.1528 86.2205 93.5865 86.5675 93.0896C86.9145 92.581 87.354 92.1823 87.8861 91.8934C88.4182 91.5929 89.037 91.4426 89.7425 91.4426ZM89.4996 92.0321C88.9676 92.0321 88.528 92.2112 88.181 92.5695C87.8456 92.9278 87.5854 93.3901 87.4003 93.9564C87.2268 94.5227 87.1169 95.1179 87.0706 95.742C87.6837 95.6611 88.2678 95.5166 88.823 95.3086C89.3782 95.1005 89.8351 94.8347 90.1936 94.5111C90.5522 94.176 90.7315 93.7888 90.7315 93.3496C90.7315 92.9798 90.6274 92.6677 90.4192 92.4135C90.2226 92.1592 89.916 92.0321 89.4996 92.0321Z" fill="#50667F"/>
<path d="M98.4046 104.722V104.202C98.7285 104.202 98.9541 104.092 99.0813 103.873C99.2201 103.653 99.3069 103.358 99.3415 102.988C99.3878 102.63 99.4283 102.226 99.463 101.775C99.544 100.781 99.6249 99.8217 99.7059 98.8971C99.7984 97.961 99.8794 97.1115 99.9488 96.3487C100.03 95.5744 100.093 94.9156 100.14 94.3724C100.186 93.8292 100.209 93.4478 100.209 93.2283C100.209 92.9971 100.186 92.7891 100.14 92.6042C100.105 92.4077 99.9719 92.3094 99.7406 92.3094C99.5555 92.3094 99.3416 92.4366 99.0987 92.6908C98.8673 92.9451 98.6649 93.3785 98.4914 93.991L97.9882 93.887C98.0229 93.679 98.0923 93.4421 98.1964 93.1762C98.3121 92.8989 98.4625 92.6273 98.6475 92.3615C98.8326 92.0956 99.0582 91.876 99.3242 91.7027C99.5902 91.5293 99.8967 91.4426 100.244 91.4426C100.764 91.4426 101.111 91.6276 101.285 91.9974C101.47 92.3557 101.562 92.7775 101.562 93.2629C101.562 93.6097 101.533 93.9621 101.476 94.3204C101.429 94.6671 101.377 94.9734 101.319 95.2392H101.371C101.695 94.176 102.025 93.3727 102.36 92.8295C102.707 92.2863 103.06 91.9223 103.419 91.7374C103.777 91.5409 104.124 91.4426 104.46 91.4426C104.992 91.4426 105.431 91.5987 105.778 91.9107C106.125 92.2112 106.38 92.6157 106.542 93.1242C106.715 93.6328 106.802 94.1933 106.802 94.8058C106.802 95.9269 106.605 96.9151 106.212 97.7703C105.83 98.6255 105.258 99.2959 104.494 99.7813C103.743 100.255 102.806 100.492 101.684 100.492C101.533 100.492 101.389 100.486 101.25 100.475C101.123 100.463 100.996 100.452 100.868 100.44C100.811 101.318 100.764 101.995 100.73 102.468C100.706 102.954 100.683 103.306 100.66 103.526C100.649 103.757 100.625 103.936 100.591 104.063C100.776 104.052 100.955 104.04 101.129 104.029C101.314 104.029 101.499 104.023 101.684 104.011V104.722H98.4046ZM101.979 99.9026C102.465 99.9026 102.893 99.8044 103.263 99.6079C103.633 99.4114 103.945 99.1514 104.2 98.8278C104.466 98.4926 104.68 98.117 104.841 97.701C105.003 97.2849 105.119 96.8573 105.188 96.4181C105.269 95.9673 105.31 95.5339 105.31 95.1179C105.31 94.5862 105.275 94.1066 105.206 93.679C105.136 93.2398 105.015 92.8931 104.841 92.6388C104.668 92.3846 104.419 92.2574 104.095 92.2574C103.783 92.2574 103.471 92.425 103.159 92.7602C102.846 93.0953 102.557 93.5461 102.291 94.1124C102.025 94.6671 101.788 95.2855 101.58 95.9673C101.371 96.6492 101.215 97.3427 101.111 98.0477C101.065 98.3019 101.024 98.5678 100.99 98.8451C100.967 99.1109 100.944 99.3941 100.92 99.6946C101.105 99.7524 101.279 99.8044 101.441 99.8506C101.614 99.8853 101.794 99.9026 101.979 99.9026Z" fill="#50667F"/>
<path d="M111.301 87.2127C111.266 87.5016 111.214 87.8252 111.145 88.1835C111.087 88.5418 111.029 88.8943 110.971 89.241C110.925 89.5877 110.884 89.894 110.85 90.1598C110.78 90.6452 110.711 91.1999 110.641 91.824C110.572 92.4366 110.503 93.078 110.433 93.7483C110.364 94.4071 110.3 95.0543 110.242 95.69C110.196 96.3256 110.156 96.9093 110.121 97.4409C110.086 97.961 110.069 98.3886 110.069 98.7238C110.069 98.9434 110.092 99.1514 110.138 99.3479C110.185 99.5328 110.318 99.6252 110.537 99.6252C110.734 99.6252 110.948 99.5039 111.179 99.2612C111.422 99.0069 111.63 98.5678 111.804 97.9437L112.29 98.065C112.255 98.2615 112.18 98.4984 112.064 98.7758C111.96 99.0532 111.815 99.3248 111.63 99.5906C111.445 99.8448 111.22 100.059 110.954 100.232C110.699 100.405 110.398 100.492 110.051 100.492C109.577 100.492 109.23 100.376 109.011 100.145C108.791 99.9026 108.675 99.5501 108.664 99.0878C108.652 98.7989 108.664 98.3713 108.698 97.805C108.744 97.2387 108.797 96.5972 108.854 95.8807C108.924 95.1526 108.999 94.3955 109.08 93.6097C109.161 92.8122 109.248 92.0379 109.34 91.2866C109.433 90.5354 109.519 89.8535 109.6 89.241C109.658 88.9289 109.693 88.7267 109.704 88.6342C109.728 88.5302 109.745 88.4204 109.757 88.3048C109.548 88.3164 109.34 88.3279 109.132 88.3395C108.935 88.3511 108.733 88.3626 108.525 88.3742L108.611 87.6807C109.12 87.6807 109.514 87.6576 109.791 87.6114C110.08 87.5652 110.3 87.5074 110.451 87.438C110.601 87.3687 110.722 87.2936 110.815 87.2127H111.301Z" fill="#50667F"/>
<path d="M118.21 91.4426C118.557 91.4426 118.938 91.4715 119.355 91.5293C119.771 91.5756 120.164 91.6449 120.534 91.7374C120.442 92.4308 120.349 93.1242 120.257 93.8177C120.176 94.4996 120.095 95.1526 120.014 95.7767C119.945 96.3892 119.887 96.9439 119.84 97.4409C119.794 97.9263 119.771 98.3077 119.771 98.5851C119.771 98.8162 119.788 99.0474 119.823 99.2785C119.858 99.5097 120.002 99.6252 120.257 99.6252C120.453 99.6252 120.667 99.4981 120.899 99.2439C121.142 98.9896 121.35 98.5562 121.523 97.9437L122.009 98.0477C121.974 98.2557 121.899 98.4984 121.784 98.7758C121.68 99.0416 121.535 99.3074 121.35 99.5732C121.165 99.8391 120.939 100.059 120.673 100.232C120.407 100.405 120.101 100.492 119.754 100.492C119.291 100.492 118.961 100.348 118.765 100.059C118.568 99.7697 118.47 99.3941 118.47 98.9318C118.47 98.5966 118.499 98.2326 118.557 97.8396C118.626 97.4467 118.701 97.0364 118.782 96.6088H118.73C118.452 97.464 118.163 98.1517 117.863 98.6718C117.573 99.1803 117.278 99.5675 116.978 99.8333C116.688 100.099 116.405 100.272 116.128 100.353C115.85 100.446 115.59 100.492 115.347 100.492C114.722 100.492 114.196 100.261 113.768 99.7986C113.352 99.3363 113.143 98.562 113.143 97.4756C113.143 96.6666 113.247 95.898 113.456 95.1699C113.664 94.4418 113.976 93.8003 114.393 93.2456C114.82 92.6793 115.353 92.2401 115.989 91.9281C116.625 91.6045 117.365 91.4426 118.21 91.4426ZM117.672 92.0667C117.151 92.0667 116.694 92.2112 116.301 92.5001C115.919 92.7891 115.601 93.182 115.347 93.679C115.092 94.1644 114.901 94.7134 114.774 95.3259C114.659 95.9269 114.601 96.5452 114.601 97.1809C114.601 97.9205 114.682 98.5331 114.844 99.0185C115.006 99.4923 115.3 99.7293 115.728 99.7293C116.041 99.7293 116.353 99.5732 116.665 99.2612C116.989 98.9491 117.29 98.5331 117.568 98.013C117.845 97.4814 118.094 96.8919 118.314 96.2447C118.533 95.586 118.707 94.9156 118.834 94.2337C118.961 93.5519 119.025 92.8989 119.025 92.2748C118.851 92.2054 118.649 92.1534 118.418 92.1188C118.186 92.0841 117.938 92.0667 117.672 92.0667Z" fill="#50667F"/>
<path d="M123.117 104.999C122.724 104.976 122.406 104.861 122.163 104.653C121.92 104.456 121.798 104.208 121.798 103.907C121.798 103.641 121.879 103.439 122.041 103.3C122.203 103.173 122.359 103.11 122.51 103.11C123.03 103.11 123.279 103.41 123.256 104.011C123.325 104.046 123.389 104.075 123.447 104.098C123.504 104.121 123.568 104.133 123.637 104.133C123.892 104.144 124.152 104.052 124.418 103.855C124.696 103.659 124.956 103.41 125.199 103.11C125.453 102.821 125.673 102.532 125.858 102.243C126.055 101.966 126.199 101.752 126.292 101.602C126.188 100.931 126.066 100.244 125.928 99.5386C125.789 98.822 125.627 98.1112 125.442 97.4062C125.268 96.6897 125.072 96.002 124.852 95.3433C124.644 94.6729 124.418 94.0431 124.175 93.4536C124.094 93.2572 123.99 93.0549 123.863 92.8469C123.736 92.6388 123.557 92.5464 123.325 92.5695C123.105 92.5926 122.938 92.766 122.822 93.0896C122.718 93.4132 122.689 93.8408 122.735 94.3724L122.18 94.4418C122.145 94.1297 122.14 93.8003 122.163 93.4536C122.197 93.1069 122.273 92.7833 122.388 92.4828C122.504 92.1708 122.672 91.9223 122.891 91.7374C123.111 91.5409 123.4 91.4426 123.759 91.4426C124.152 91.4426 124.47 91.5467 124.713 91.7547C124.968 91.9627 125.17 92.217 125.32 92.5175C125.482 92.818 125.615 93.1127 125.719 93.4016C125.939 93.991 126.153 94.6671 126.361 95.4299C126.57 96.1927 126.749 96.9728 126.899 97.7703C127.061 98.5562 127.183 99.2901 127.264 99.972H127.298C127.622 99.4057 127.934 98.7816 128.235 98.0997C128.536 97.4178 128.785 96.7244 128.981 96.0194C129.178 95.3028 129.276 94.6325 129.276 94.0084C129.276 93.7194 129.247 93.4652 129.189 93.2456C129.143 93.026 129.085 92.87 129.016 92.7775C128.97 92.8122 128.906 92.8411 128.825 92.8642C128.756 92.8758 128.675 92.8815 128.582 92.8815C128.374 92.8815 128.206 92.818 128.079 92.6908C127.952 92.5522 127.888 92.3903 127.888 92.2054C127.888 91.9512 127.969 91.7605 128.131 91.6333C128.305 91.5062 128.495 91.4426 128.704 91.4426C129.062 91.4426 129.34 91.5524 129.536 91.772C129.733 91.9916 129.872 92.269 129.953 92.6042C130.045 92.9393 130.092 93.2918 130.092 93.6617C130.092 94.4244 129.982 95.2046 129.762 96.002C129.542 96.7995 129.253 97.5854 128.895 98.3597C128.548 99.1341 128.177 99.8795 127.784 100.596C127.206 101.636 126.651 102.486 126.119 103.144C125.598 103.803 125.089 104.277 124.592 104.566C124.094 104.867 123.603 105.011 123.117 104.999Z" fill="#50667F"/>
<path d="M136.627 91.4426C136.974 91.4426 137.356 91.4715 137.772 91.5293C138.188 91.5756 138.582 91.6449 138.952 91.7374C138.859 92.4308 138.767 93.1242 138.674 93.8177C138.593 94.4996 138.512 95.1526 138.431 95.7767C138.362 96.3892 138.304 96.9439 138.258 97.4409C138.212 97.9263 138.188 98.3077 138.188 98.5851C138.188 98.8162 138.206 99.0474 138.24 99.2785C138.275 99.5097 138.42 99.6252 138.674 99.6252C138.871 99.6252 139.085 99.4981 139.316 99.2439C139.559 98.9896 139.767 98.5562 139.941 97.9437L140.427 98.0477C140.392 98.2557 140.317 98.4984 140.201 98.7758C140.097 99.0416 139.952 99.3074 139.767 99.5732C139.582 99.8391 139.357 100.059 139.091 100.232C138.825 100.405 138.518 100.492 138.171 100.492C137.708 100.492 137.379 100.348 137.182 100.059C136.985 99.7697 136.887 99.3941 136.887 98.9318C136.887 98.5966 136.916 98.2326 136.974 97.8396C137.043 97.4467 137.118 97.0364 137.199 96.6088H137.147C136.87 97.464 136.581 98.1517 136.28 98.6718C135.991 99.1803 135.696 99.5675 135.395 99.8333C135.106 100.099 134.823 100.272 134.545 100.353C134.267 100.446 134.007 100.492 133.764 100.492C133.14 100.492 132.613 100.261 132.185 99.7986C131.769 99.3363 131.561 98.562 131.561 97.4756C131.561 96.6666 131.665 95.898 131.873 95.1699C132.081 94.4418 132.394 93.8003 132.81 93.2456C133.238 92.6793 133.77 92.2401 134.406 91.9281C135.042 91.6045 135.783 91.4426 136.627 91.4426ZM136.089 92.0667C135.569 92.0667 135.112 92.2112 134.718 92.5001C134.337 92.7891 134.019 93.182 133.764 93.679C133.51 94.1644 133.319 94.7134 133.192 95.3259C133.076 95.9269 133.018 96.5452 133.018 97.1809C133.018 97.9205 133.099 98.5331 133.261 99.0185C133.423 99.4923 133.718 99.7293 134.146 99.7293C134.458 99.7293 134.77 99.5732 135.083 99.2612C135.407 98.9491 135.707 98.5331 135.985 98.013C136.263 97.4814 136.511 96.8919 136.731 96.2447C136.951 95.586 137.124 94.9156 137.252 94.2337C137.379 93.5519 137.442 92.8989 137.442 92.2748C137.269 92.2054 137.066 92.1534 136.835 92.1188C136.604 92.0841 136.355 92.0667 136.089 92.0667Z" fill="#50667F"/>
<path d="M148.035 87.126L147.029 104.999H145.936L146.821 87.126H148.035Z" fill="#50667F"/>
<path d="M163.252 88.1661L163.183 91.1999H162.61C162.645 90.5181 162.564 90.0038 162.367 89.657C162.182 89.2988 161.916 89.0618 161.569 88.9463C161.222 88.8191 160.829 88.7613 160.389 88.7729L158.897 88.8076C158.469 88.8191 158.157 88.9 157.96 89.0503C157.775 89.2005 157.654 89.4259 157.596 89.7264C157.55 90.0153 157.509 90.3967 157.475 90.8706L157.318 93.6443L158.568 93.6617C159.053 93.6617 159.452 93.6328 159.765 93.575C160.077 93.5172 160.308 93.3727 160.459 93.1416C160.621 92.9104 160.713 92.5406 160.736 92.0321H161.309L161.118 95.8113H160.545C160.569 95.3028 160.517 94.9387 160.389 94.7192C160.262 94.4996 160.048 94.3667 159.747 94.3204C159.447 94.2742 159.048 94.2626 158.55 94.2858L157.284 94.3378L157.075 98.3077C157.064 98.6198 157.047 98.8856 157.023 99.1052C157 99.3248 156.977 99.5097 156.954 99.6599L160.268 99.6079C160.777 99.5964 161.222 99.5155 161.604 99.3652C161.986 99.2034 162.286 98.926 162.506 98.5331C162.737 98.1401 162.87 97.6027 162.905 96.9208H163.495L163.217 100.301H154.334L154.369 99.7293C154.808 99.7062 155.115 99.6079 155.288 99.4346C155.462 99.2496 155.566 99.0012 155.601 98.6891C155.635 98.3655 155.659 98.0014 155.67 97.5969L156.087 90.1078C156.098 89.8766 156.115 89.657 156.139 89.449C156.162 89.2294 156.185 89.0329 156.208 88.8596C156 88.8711 155.786 88.8827 155.566 88.8943C155.358 88.9058 155.15 88.9174 154.941 88.9289L154.976 88.1661H163.252Z" fill="#50667F"/>
<path d="M167.661 100.492C167.199 100.492 166.753 100.423 166.325 100.284C165.897 100.134 165.55 99.92 165.284 99.6426C165.018 99.3652 164.885 99.03 164.885 98.6371C164.885 98.3828 164.955 98.1806 165.094 98.0303C165.244 97.8685 165.423 97.7876 165.631 97.7876C165.863 97.7876 166.036 97.8628 166.152 98.013C166.279 98.1632 166.343 98.3308 166.343 98.5157C166.343 98.5966 166.331 98.6833 166.308 98.7758C166.285 98.8682 166.244 98.9607 166.187 99.0532C166.279 99.3074 166.464 99.5039 166.742 99.6426C167.019 99.7813 167.314 99.8506 167.627 99.8506C168.251 99.8506 168.72 99.7062 169.032 99.4172C169.344 99.1283 169.5 98.7238 169.5 98.2037C169.5 97.8916 169.391 97.6143 169.171 97.3716C168.951 97.1289 168.673 96.9035 168.338 96.6955C168.003 96.4759 167.656 96.2621 167.297 96.054C166.962 95.846 166.638 95.6322 166.325 95.4126C166.025 95.193 165.776 94.9503 165.579 94.6845C165.394 94.4187 165.302 94.1182 165.302 93.783C165.302 93.3554 165.429 92.9682 165.684 92.6215C165.938 92.2632 166.291 91.9801 166.742 91.772C167.193 91.5524 167.713 91.4426 168.303 91.4426C168.743 91.4426 169.153 91.512 169.535 91.6507C169.928 91.7894 170.247 91.9858 170.489 92.2401C170.744 92.4944 170.871 92.7949 170.871 93.1416C170.871 93.3843 170.802 93.5808 170.663 93.731C170.524 93.8697 170.351 93.939 170.142 93.939C169.934 93.939 169.767 93.8697 169.639 93.731C169.512 93.5923 169.448 93.4305 169.448 93.2456C169.448 93.1531 169.46 93.0665 169.483 92.9856C169.506 92.8931 169.547 92.8006 169.605 92.7082C169.547 92.5117 169.402 92.3499 169.171 92.2228C168.951 92.0841 168.645 92.0147 168.251 92.0147C167.997 92.0147 167.748 92.0725 167.505 92.1881C167.262 92.3037 167.06 92.4655 166.898 92.6735C166.736 92.87 166.655 93.1069 166.655 93.3843C166.655 93.6039 166.719 93.8061 166.846 93.991C166.985 94.176 167.164 94.3493 167.384 94.5111C167.604 94.6729 167.841 94.8347 168.095 94.9965C168.512 95.2392 168.94 95.4993 169.379 95.7767C169.819 96.0425 170.183 96.3487 170.472 96.6955C170.773 97.0422 170.923 97.464 170.923 97.961C170.923 98.4464 170.784 98.8798 170.507 99.2612C170.241 99.6426 169.859 99.9431 169.362 100.163C168.876 100.382 168.309 100.492 167.661 100.492Z" fill="#50667F"/>
<path d="M175.551 89.189L175.239 91.6333H177.997L177.945 92.2921L175.169 92.3268C175.123 92.8122 175.065 93.3149 174.996 93.835C174.938 94.3435 174.886 94.8521 174.84 95.3606C174.793 95.8691 174.753 96.3603 174.718 96.8342C174.684 97.2964 174.666 97.7183 174.666 98.0997C174.666 98.3193 174.678 98.5504 174.701 98.7931C174.736 99.0243 174.811 99.2207 174.926 99.3825C175.042 99.5328 175.227 99.6079 175.482 99.6079C175.597 99.6079 175.736 99.5848 175.898 99.5386C176.072 99.4923 176.262 99.3825 176.471 99.2092C176.679 99.0358 176.893 98.7642 177.113 98.3944L177.564 98.6891C177.228 99.2785 176.864 99.7293 176.471 100.041C176.089 100.342 175.62 100.492 175.065 100.492C174.614 100.492 174.256 100.4 173.99 100.215C173.735 100.018 173.55 99.7639 173.434 99.4519C173.319 99.1398 173.261 98.8047 173.261 98.4464C173.261 98.0072 173.278 97.4756 173.313 96.8515C173.348 96.2158 173.4 95.5166 173.469 94.7538C173.538 93.9795 173.619 93.1762 173.712 92.3441L172.168 92.3615L172.22 91.6333C173.018 91.6333 173.608 91.4195 173.99 90.9919C174.371 90.5643 174.672 89.9633 174.892 89.189H175.551Z" fill="#50667F"/>
<path d="M187.175 87.8888L186.637 98.4117C186.625 98.6313 186.614 98.8451 186.602 99.0532C186.591 99.2612 186.567 99.4461 186.533 99.6079C186.776 99.5964 187.019 99.5848 187.261 99.5732C187.504 99.5617 187.747 99.5501 187.99 99.5386L187.955 100.301H183.653L183.67 99.7293C184.075 99.7062 184.387 99.6137 184.607 99.4519C184.838 99.2901 185.006 99.0647 185.11 98.7758C185.214 98.4869 185.272 98.1459 185.284 97.753L185.631 89.5704L183.514 90.9052L183.202 90.3851L186.585 87.8888H187.175Z" fill="#50667F"/>
<path d="M193.863 87.8888C194.627 87.9003 195.257 88.0679 195.755 88.3915C196.252 88.7151 196.634 89.1601 196.9 89.7264C197.166 90.2927 197.345 90.9457 197.437 91.6854C197.53 92.4135 197.559 93.1936 197.524 94.0257C197.501 94.5342 197.449 95.0832 197.368 95.6726C197.287 96.2621 197.148 96.8457 196.952 97.4236C196.755 98.0014 196.483 98.5273 196.136 99.0012C195.789 99.475 195.344 99.8564 194.8 100.145C194.268 100.434 193.615 100.579 192.84 100.579C192.134 100.579 191.556 100.463 191.105 100.232C190.665 99.9893 190.341 99.6888 190.133 99.3305C189.937 98.9607 189.85 98.5966 189.873 98.2384C189.896 97.9957 189.983 97.7992 190.133 97.6489C190.295 97.4987 190.486 97.4236 190.706 97.4236C190.937 97.4236 191.116 97.4987 191.244 97.6489C191.382 97.7992 191.452 97.9725 191.452 98.169C191.452 98.273 191.423 98.3944 191.365 98.5331C191.319 98.6718 191.249 98.7816 191.157 98.8625C191.226 99.0821 191.377 99.3132 191.608 99.5559C191.851 99.7986 192.256 99.92 192.822 99.92C193.343 99.92 193.782 99.7928 194.141 99.5386C194.5 99.2728 194.795 98.926 195.026 98.4984C195.269 98.0708 195.46 97.6027 195.598 97.0942C195.737 96.5857 195.835 96.0887 195.893 95.6033C195.963 95.1063 196.003 94.6614 196.015 94.2684C195.714 94.6498 195.321 94.9908 194.835 95.2912C194.349 95.5802 193.765 95.7246 193.083 95.7246C192.389 95.7246 191.822 95.6091 191.382 95.3779C190.943 95.1352 190.602 94.8232 190.359 94.4418C190.127 94.0604 189.971 93.6443 189.89 93.1936C189.809 92.7313 189.78 92.2806 189.803 91.8414C189.85 91.1133 190.035 90.4487 190.359 89.8477C190.683 89.2468 191.139 88.7671 191.729 88.4088C192.319 88.039 193.031 87.8656 193.863 87.8888ZM193.707 88.5475C193.21 88.5475 192.793 88.6862 192.458 88.9636C192.123 89.2294 191.862 89.5877 191.677 90.0384C191.504 90.4776 191.405 90.9515 191.382 91.46C191.371 91.7836 191.382 92.1476 191.417 92.5522C191.452 92.9451 191.538 93.3265 191.677 93.6963C191.816 94.0546 192.03 94.3551 192.319 94.5978C192.608 94.829 192.996 94.9445 193.482 94.9445C193.84 94.9445 194.187 94.8578 194.523 94.6845C194.87 94.5111 195.176 94.2858 195.442 94.0084C195.708 93.7194 195.905 93.4132 196.032 93.0896C196.032 92.5117 195.997 91.9512 195.928 91.408C195.859 90.8648 195.737 90.3794 195.564 89.9517C195.402 89.5241 195.17 89.1832 194.87 88.9289C194.569 88.6747 194.181 88.5475 193.707 88.5475Z" fill="#50667F"/>
<path d="M203.436 87.8888C204.2 87.9003 204.83 88.0679 205.328 88.3915C205.825 88.7151 206.207 89.1601 206.473 89.7264C206.739 90.2927 206.918 90.9457 207.01 91.6854C207.103 92.4135 207.132 93.1936 207.097 94.0257C207.074 94.5342 207.022 95.0832 206.941 95.6726C206.86 96.2621 206.721 96.8457 206.525 97.4236C206.328 98.0014 206.056 98.5273 205.709 99.0012C205.362 99.475 204.917 99.8564 204.373 100.145C203.841 100.434 203.188 100.579 202.413 100.579C201.707 100.579 201.129 100.463 200.678 100.232C200.238 99.9893 199.914 99.6888 199.706 99.3305C199.509 98.9607 199.423 98.5966 199.446 98.2384C199.469 97.9957 199.556 97.7992 199.706 97.6489C199.868 97.4987 200.059 97.4236 200.279 97.4236C200.51 97.4236 200.689 97.4987 200.817 97.6489C200.955 97.7992 201.025 97.9725 201.025 98.169C201.025 98.273 200.996 98.3944 200.938 98.5331C200.892 98.6718 200.822 98.7816 200.73 98.8625C200.799 99.0821 200.95 99.3132 201.181 99.5559C201.424 99.7986 201.829 99.92 202.395 99.92C202.916 99.92 203.355 99.7928 203.714 99.5386C204.073 99.2728 204.367 98.926 204.599 98.4984C204.842 98.0708 205.033 97.6027 205.171 97.0942C205.31 96.5857 205.408 96.0887 205.466 95.6033C205.536 95.1063 205.576 94.6614 205.588 94.2684C205.287 94.6498 204.894 94.9908 204.408 95.2912C203.922 95.5802 203.338 95.7246 202.656 95.7246C201.962 95.7246 201.395 95.6091 200.955 95.3779C200.516 95.1352 200.175 94.8232 199.932 94.4418C199.7 94.0604 199.544 93.6443 199.463 93.1936C199.382 92.7313 199.353 92.2806 199.376 91.8414C199.423 91.1133 199.608 90.4487 199.932 89.8477C200.256 89.2468 200.712 88.7671 201.302 88.4088C201.892 88.039 202.604 87.8656 203.436 87.8888ZM203.28 88.5475C202.783 88.5475 202.366 88.6862 202.031 88.9636C201.696 89.2294 201.435 89.5877 201.25 90.0384C201.077 90.4776 200.978 90.9515 200.955 91.46C200.944 91.7836 200.955 92.1476 200.99 92.5522C201.025 92.9451 201.111 93.3265 201.25 93.6963C201.389 94.0546 201.603 94.3551 201.892 94.5978C202.181 94.829 202.569 94.9445 203.055 94.9445C203.413 94.9445 203.76 94.8578 204.096 94.6845C204.443 94.5111 204.749 94.2858 205.015 94.0084C205.281 93.7194 205.478 93.4132 205.605 93.0896C205.605 92.5117 205.57 91.9512 205.501 91.408C205.432 90.8648 205.31 90.3794 205.137 89.9517C204.975 89.5241 204.743 89.1832 204.443 88.9289C204.142 88.6747 203.754 88.5475 203.28 88.5475Z" fill="#50667F"/>
<path d="M212.038 100.579C211.205 100.579 210.517 100.452 209.973 100.197C209.441 99.9315 209.054 99.6079 208.811 99.2265C208.568 98.8336 208.458 98.4522 208.481 98.0823C208.504 97.8165 208.591 97.6085 208.741 97.4582C208.903 97.308 209.1 97.2329 209.331 97.2329C209.493 97.2329 209.632 97.2733 209.748 97.3542C209.863 97.4236 209.95 97.516 210.008 97.6316C210.077 97.7472 210.112 97.8743 210.112 98.013C210.112 98.117 210.095 98.2326 210.06 98.3597C210.025 98.4869 209.962 98.6024 209.869 98.7064C209.973 99.0994 210.228 99.3883 210.632 99.5732C211.049 99.7466 211.483 99.8333 211.934 99.8333C212.801 99.8333 213.484 99.5848 213.981 99.0878C214.478 98.5793 214.75 97.8974 214.796 97.0422C214.808 96.7879 214.791 96.5048 214.744 96.1927C214.698 95.8691 214.594 95.5628 214.432 95.2739C214.27 94.9734 214.027 94.7307 213.703 94.5458C213.391 94.3493 212.963 94.2511 212.419 94.2511C212.188 94.2511 211.986 94.2569 211.812 94.2684C211.639 94.2684 211.459 94.2742 211.274 94.2858L211.309 93.5056C211.436 93.5056 211.558 93.5056 211.673 93.5056C211.789 93.5056 211.905 93.5056 212.02 93.5056C212.633 93.5056 213.119 93.3669 213.478 93.0896C213.848 92.8122 214.12 92.4886 214.293 92.1188C214.467 91.7374 214.559 91.3906 214.571 91.0786C214.594 90.6047 214.554 90.1771 214.449 89.7957C214.345 89.4143 214.143 89.1138 213.842 88.8943C213.541 88.6747 213.113 88.5649 212.558 88.5649C212.2 88.5649 211.864 88.6342 211.552 88.7729C211.251 88.9116 211.003 89.0792 210.806 89.2756C210.609 89.4721 210.488 89.6686 210.442 89.8651C210.534 89.9806 210.592 90.102 210.615 90.2291C210.638 90.3447 210.65 90.4487 210.65 90.5412C210.65 90.6683 210.615 90.7897 210.546 90.9052C210.488 91.0208 210.401 91.1133 210.285 91.1826C210.181 91.252 210.054 91.2866 209.904 91.2866C209.684 91.2866 209.499 91.2173 209.349 91.0786C209.21 90.9283 209.14 90.7319 209.14 90.4892C209.14 90.1424 209.279 89.7668 209.557 89.3623C209.846 88.9578 210.262 88.6111 210.806 88.3222C211.361 88.0332 212.038 87.8888 212.836 87.8888C213.449 87.8888 214.016 87.987 214.536 88.1835C215.068 88.3799 215.49 88.6978 215.803 89.137C216.115 89.5761 216.248 90.1598 216.202 90.8879C216.19 91.2577 216.075 91.6333 215.855 92.0147C215.647 92.3961 215.328 92.7486 214.901 93.0722C214.473 93.3843 213.923 93.6212 213.252 93.783C214.363 93.8755 215.195 94.2164 215.751 94.8058C216.306 95.3953 216.56 96.1003 216.514 96.9208C216.479 97.7067 216.242 98.3713 215.803 98.9145C215.363 99.4577 214.808 99.8737 214.137 100.163C213.466 100.44 212.766 100.579 212.038 100.579Z" fill="#50667F"/>
<path d="M37.1785 36.3457C35.8901 36.4984 34.6016 36.7445 33.3081 36.7888C30.5173 36.8872 28.3325 37.9653 26.7334 40.1805C26.1325 41.0124 25.389 41.6967 24.3297 41.9871C23.9274 42.0954 23.5047 42.2234 23.2144 41.869C22.9343 41.5244 23.0158 41.0666 23.3111 40.7909C24.4977 39.6882 23.7949 38.8612 22.9547 38.0244C22.6338 37.7044 22.3232 37.3746 22.0583 37.0103C20.9379 35.4744 19.5629 34.608 17.5055 35.1348C17.042 35.2529 16.2068 35.4892 16.1152 34.6671C16.049 34.0912 16.7365 33.9632 17.2254 33.8106C20.2555 32.8605 22.3843 33.6678 24.0801 36.6706C24.8237 37.9899 25.2718 38.1868 26.708 37.3303C29.9469 35.3957 33.5933 35.6024 37.1785 35.8387C37.1785 36.0061 37.1785 36.1735 37.1785 36.3408V36.3457Z" fill="#CF9A84"/>
<path d="M40.7965 23.8251C43.5713 23.8466 46.4239 23.3731 48.7324 25.511C49.7584 26.458 50.6522 25.6545 51.344 24.8295C53.6835 22.0316 56.948 20.4533 60.3524 19.083C61.1763 18.753 62.3034 18.1145 62.9718 19.1045C63.7802 20.2954 62.2645 20.568 61.6194 21.0057C58.5025 23.1435 55.4168 25.2384 53.5358 28.5385C52.743 29.9302 51.4061 30.1168 50.0382 28.9617C47.0379 26.4149 43.5869 25.2527 39.4363 25.6832C37.8274 25.8482 36.1407 25.4106 34.4852 25.2384C33.9255 25.181 33.397 24.9873 33.4669 24.399C33.5214 23.9614 34.0266 23.8825 34.4929 23.8179C36.5993 23.5094 38.7057 23.7892 40.8043 23.8251H40.7965Z" fill="#CF9A84"/>
<path d="M43.0587 50.7591C40.86 50.2814 38.6612 49.8036 36.4625 49.3354C35.942 49.2255 35.4163 49.13 34.8905 49.0679C34.3063 48.9962 33.4247 48.9341 33.4618 48.4229C33.5149 47.7254 34.4231 47.8066 35.0604 47.8114C35.4109 47.8114 35.7721 47.8687 36.112 47.9499C36.744 48.1028 37.3919 48.2366 37.9814 48.4755C40.0368 49.3163 41.9275 49.8657 43.3933 47.5582C43.7969 46.9275 44.7901 46.5788 45.5655 46.1822C45.985 45.9672 46.5586 45.5277 46.9835 46.0962C47.3181 46.5453 46.8082 46.8511 46.4789 47.1712C45.7036 47.9213 44.9919 48.7 44.8272 49.7845C44.6839 50.7161 43.9138 50.7973 43.0534 50.7639L43.0587 50.7591Z" fill="#CF9A84"/>
</svg>
