<svg width="63" height="41" viewBox="0 0 63 41" fill="none" xmlns="http://www.w3.org/2000/svg">
<path d="M25.3114 23.9181C23.7634 24.1188 22.2154 24.4427 20.6614 24.501C17.3084 24.6305 14.6836 26.0489 12.7624 28.9634C12.0404 30.058 11.1471 30.9583 9.87446 31.3404C9.3911 31.4829 8.88327 31.6513 8.53451 31.1849C8.19799 30.7316 8.29589 30.1292 8.65076 29.7665C10.0764 28.3158 9.23202 27.2277 8.22247 26.1266C7.837 25.7056 7.46378 25.2717 7.14562 24.7924C5.79955 22.7717 4.14756 21.6318 1.67569 22.3248C1.11891 22.4802 0.115474 22.7911 0.00534119 21.7095C-0.0741991 20.9517 0.751797 20.7833 1.33917 20.5825C4.97967 19.3325 7.5372 20.3947 9.57465 24.3455C10.468 26.0813 11.0064 26.3403 12.7318 25.2134C16.6231 22.668 21.004 22.9401 25.3114 23.2509C25.3114 23.4712 25.3114 23.6914 25.3114 23.9116V23.9181Z" fill="white"/>
<path d="M42.2841 4.74046C44.4684 4.75989 46.7138 4.33242 48.531 6.26249C49.3387 7.11742 50.0423 6.39202 50.5868 5.6472C52.4285 3.12127 54.9983 1.69639 57.6782 0.459336C58.3267 0.161407 59.2139 -0.415022 59.7401 0.478767C60.3764 1.5539 59.1833 1.80002 58.6755 2.1951C56.222 4.12517 53.7929 6.01637 52.3123 8.99567C51.6882 10.2522 50.6358 10.4206 49.5589 9.3778C47.1972 7.07856 44.4806 6.02933 41.2133 6.41793C39.9468 6.56689 38.6191 6.17181 37.3158 6.01637C36.8753 5.96456 36.4593 5.78969 36.5143 5.25859C36.5571 4.86351 36.9549 4.79227 37.322 4.73398C38.9801 4.45548 40.6382 4.70807 42.2902 4.74046H42.2841Z" fill="white"/>
<path d="M57.4518 40.0322C54.9188 39.3845 52.3857 38.7368 49.8527 38.1021C49.2531 37.9531 48.6473 37.8236 48.0416 37.7394C47.3686 37.6423 46.3529 37.5581 46.3957 36.865C46.4569 35.9194 47.5032 36.0296 48.2374 36.036C48.6412 36.036 49.0573 36.1137 49.4488 36.2239C50.1769 36.4311 50.9234 36.6125 51.6025 36.9363C53.9704 38.0762 56.1486 38.821 57.8373 35.6928C58.3023 34.8378 59.4465 34.365 60.3398 33.8275C60.8231 33.536 61.4839 32.9401 61.9734 33.7109C62.3589 34.3197 61.7715 34.7342 61.3921 35.1681C60.4988 36.185 59.679 37.2407 59.4893 38.7109C59.3241 39.9739 58.4369 40.084 57.4457 40.0386L57.4518 40.0322Z" fill="white"/>
</svg>
